<mxfile host="app.diagrams.net" agent="Mozilla/5.0 (Windows NT 10.0; Win64; x64) AppleWebKit/537.36 (KHTML, like Gecko) Chrome/130.0.0.0 Safari/537.36" version="24.9.0">
  <diagram name="Page-1" id="gQzs2AFfTex6HAvwUJCn">
    <mxGraphModel dx="1379" dy="729" grid="1" gridSize="10" guides="1" tooltips="1" connect="1" arrows="1" fold="1" page="1" pageScale="1" pageWidth="850" pageHeight="1100" math="0" shadow="0">
      <root>
        <mxCell id="0" />
        <mxCell id="1" parent="0" />
        <mxCell id="kpc7EbH1DbhFbyY1jSJu-3" value="" style="edgeStyle=orthogonalEdgeStyle;rounded=0;orthogonalLoop=1;jettySize=auto;html=1;" edge="1" parent="1" source="kpc7EbH1DbhFbyY1jSJu-1" target="kpc7EbH1DbhFbyY1jSJu-2">
          <mxGeometry relative="1" as="geometry" />
        </mxCell>
        <mxCell id="kpc7EbH1DbhFbyY1jSJu-1" value="start" style="strokeWidth=2;html=1;shape=mxgraph.flowchart.start_1;whiteSpace=wrap;" vertex="1" parent="1">
          <mxGeometry x="370" y="40" width="100" height="60" as="geometry" />
        </mxCell>
        <mxCell id="kpc7EbH1DbhFbyY1jSJu-5" value="" style="edgeStyle=orthogonalEdgeStyle;rounded=0;orthogonalLoop=1;jettySize=auto;html=1;" edge="1" parent="1" source="kpc7EbH1DbhFbyY1jSJu-2" target="kpc7EbH1DbhFbyY1jSJu-4">
          <mxGeometry relative="1" as="geometry" />
        </mxCell>
        <mxCell id="kpc7EbH1DbhFbyY1jSJu-2" value="กำหนดตัวแปร&amp;nbsp;&lt;div&gt;a , b = 0 active = 0&lt;/div&gt;&lt;div&gt;i = o&lt;/div&gt;" style="whiteSpace=wrap;html=1;strokeWidth=2;" vertex="1" parent="1">
          <mxGeometry x="360" y="150" width="120" height="60" as="geometry" />
        </mxCell>
        <mxCell id="kpc7EbH1DbhFbyY1jSJu-7" value="" style="edgeStyle=orthogonalEdgeStyle;rounded=0;orthogonalLoop=1;jettySize=auto;html=1;" edge="1" parent="1" source="kpc7EbH1DbhFbyY1jSJu-4" target="kpc7EbH1DbhFbyY1jSJu-6">
          <mxGeometry relative="1" as="geometry" />
        </mxCell>
        <mxCell id="kpc7EbH1DbhFbyY1jSJu-4" value="แสดงค่า active" style="shape=parallelogram;perimeter=parallelogramPerimeter;whiteSpace=wrap;html=1;fixedSize=1;strokeWidth=2;" vertex="1" parent="1">
          <mxGeometry x="360" y="260" width="120" height="60" as="geometry" />
        </mxCell>
        <mxCell id="kpc7EbH1DbhFbyY1jSJu-9" value="" style="edgeStyle=orthogonalEdgeStyle;rounded=0;orthogonalLoop=1;jettySize=auto;html=1;" edge="1" parent="1" source="kpc7EbH1DbhFbyY1jSJu-6" target="kpc7EbH1DbhFbyY1jSJu-8">
          <mxGeometry relative="1" as="geometry" />
        </mxCell>
        <mxCell id="kpc7EbH1DbhFbyY1jSJu-12" value="" style="edgeStyle=orthogonalEdgeStyle;rounded=0;orthogonalLoop=1;jettySize=auto;html=1;entryX=0.5;entryY=0;entryDx=0;entryDy=0;exitX=0;exitY=0.5;exitDx=0;exitDy=0;" edge="1" parent="1" source="kpc7EbH1DbhFbyY1jSJu-6" target="kpc7EbH1DbhFbyY1jSJu-11">
          <mxGeometry relative="1" as="geometry">
            <mxPoint x="340" y="450" as="sourcePoint" />
            <Array as="points">
              <mxPoint x="300" y="445" />
              <mxPoint x="300" y="680" />
              <mxPoint x="420" y="680" />
            </Array>
          </mxGeometry>
        </mxCell>
        <mxCell id="kpc7EbH1DbhFbyY1jSJu-6" value="ค่า active ไม่เท่ากับ 0" style="rhombus;whiteSpace=wrap;html=1;strokeWidth=2;" vertex="1" parent="1">
          <mxGeometry x="350" y="380" width="140" height="130" as="geometry" />
        </mxCell>
        <mxCell id="kpc7EbH1DbhFbyY1jSJu-8" value="แสดง ok&amp;nbsp;" style="shape=parallelogram;perimeter=parallelogramPerimeter;whiteSpace=wrap;html=1;fixedSize=1;strokeWidth=2;" vertex="1" parent="1">
          <mxGeometry x="360" y="570" width="120" height="60" as="geometry" />
        </mxCell>
        <mxCell id="kpc7EbH1DbhFbyY1jSJu-10" value="ใช่" style="text;html=1;align=center;verticalAlign=middle;whiteSpace=wrap;rounded=0;" vertex="1" parent="1">
          <mxGeometry x="410" y="510" width="60" height="30" as="geometry" />
        </mxCell>
        <mxCell id="kpc7EbH1DbhFbyY1jSJu-17" value="" style="edgeStyle=orthogonalEdgeStyle;rounded=0;orthogonalLoop=1;jettySize=auto;html=1;" edge="1" parent="1" source="kpc7EbH1DbhFbyY1jSJu-11" target="kpc7EbH1DbhFbyY1jSJu-16">
          <mxGeometry relative="1" as="geometry" />
        </mxCell>
        <mxCell id="kpc7EbH1DbhFbyY1jSJu-22" style="edgeStyle=orthogonalEdgeStyle;rounded=0;orthogonalLoop=1;jettySize=auto;html=1;entryX=0.5;entryY=0;entryDx=0;entryDy=0;exitX=1;exitY=0.5;exitDx=0;exitDy=0;" edge="1" parent="1" source="kpc7EbH1DbhFbyY1jSJu-11" target="kpc7EbH1DbhFbyY1jSJu-24">
          <mxGeometry relative="1" as="geometry">
            <mxPoint x="420" y="1260" as="targetPoint" />
            <mxPoint x="540" y="830" as="sourcePoint" />
            <Array as="points">
              <mxPoint x="550" y="820" />
              <mxPoint x="550" y="1070" />
              <mxPoint x="420" y="1070" />
            </Array>
          </mxGeometry>
        </mxCell>
        <mxCell id="kpc7EbH1DbhFbyY1jSJu-11" value="i น้อยกว่า 5 ใช่ไหม" style="rhombus;whiteSpace=wrap;html=1;strokeWidth=2;" vertex="1" parent="1">
          <mxGeometry x="350" y="750" width="140" height="140" as="geometry" />
        </mxCell>
        <mxCell id="kpc7EbH1DbhFbyY1jSJu-15" value="ไม่ใช่" style="text;html=1;align=center;verticalAlign=middle;whiteSpace=wrap;rounded=0;" vertex="1" parent="1">
          <mxGeometry x="310" y="410" width="60" height="30" as="geometry" />
        </mxCell>
        <mxCell id="kpc7EbH1DbhFbyY1jSJu-20" value="" style="edgeStyle=orthogonalEdgeStyle;rounded=0;orthogonalLoop=1;jettySize=auto;html=1;entryX=0;entryY=0.5;entryDx=0;entryDy=0;entryPerimeter=0;exitX=0.5;exitY=1;exitDx=0;exitDy=0;" edge="1" parent="1" source="kpc7EbH1DbhFbyY1jSJu-16" target="kpc7EbH1DbhFbyY1jSJu-21">
          <mxGeometry relative="1" as="geometry">
            <mxPoint x="420" y="1250" as="sourcePoint" />
            <mxPoint x="420" y="810" as="targetPoint" />
            <Array as="points">
              <mxPoint x="420" y="1060" />
              <mxPoint x="300" y="1060" />
              <mxPoint x="300" y="700" />
            </Array>
          </mxGeometry>
        </mxCell>
        <mxCell id="kpc7EbH1DbhFbyY1jSJu-16" value="พิมพ์ not-okey&lt;div&gt;แล้วค่า i จะเพิ่มทีละ 1&lt;/div&gt;" style="shape=parallelogram;perimeter=parallelogramPerimeter;whiteSpace=wrap;html=1;fixedSize=1;strokeWidth=2;" vertex="1" parent="1">
          <mxGeometry x="350" y="950" width="140" height="80" as="geometry" />
        </mxCell>
        <mxCell id="kpc7EbH1DbhFbyY1jSJu-18" value="ใช่" style="text;html=1;align=center;verticalAlign=middle;whiteSpace=wrap;rounded=0;" vertex="1" parent="1">
          <mxGeometry x="410" y="880" width="60" height="30" as="geometry" />
        </mxCell>
        <mxCell id="kpc7EbH1DbhFbyY1jSJu-21" value="" style="verticalLabelPosition=bottom;verticalAlign=top;html=1;shape=mxgraph.flowchart.on-page_reference;" vertex="1" parent="1">
          <mxGeometry x="410" y="690" width="20" height="20" as="geometry" />
        </mxCell>
        <mxCell id="kpc7EbH1DbhFbyY1jSJu-23" value="ไม่ใช่" style="text;html=1;align=center;verticalAlign=middle;whiteSpace=wrap;rounded=0;" vertex="1" parent="1">
          <mxGeometry x="470" y="790" width="60" height="30" as="geometry" />
        </mxCell>
        <mxCell id="kpc7EbH1DbhFbyY1jSJu-26" value="" style="edgeStyle=orthogonalEdgeStyle;rounded=0;orthogonalLoop=1;jettySize=auto;html=1;" edge="1" parent="1" source="kpc7EbH1DbhFbyY1jSJu-24" target="kpc7EbH1DbhFbyY1jSJu-25">
          <mxGeometry relative="1" as="geometry" />
        </mxCell>
        <mxCell id="kpc7EbH1DbhFbyY1jSJu-24" value="กำหนดให้ i = 3 ใน for&lt;div&gt;วนถ้า i &amp;lt; 10 .ให้ +1&lt;/div&gt;" style="rhombus;whiteSpace=wrap;html=1;strokeWidth=2;" vertex="1" parent="1">
          <mxGeometry x="350" y="1100" width="140" height="140" as="geometry" />
        </mxCell>
        <mxCell id="kpc7EbH1DbhFbyY1jSJu-28" value="" style="edgeStyle=orthogonalEdgeStyle;rounded=0;orthogonalLoop=1;jettySize=auto;html=1;" edge="1" parent="1" source="kpc7EbH1DbhFbyY1jSJu-25" target="kpc7EbH1DbhFbyY1jSJu-27">
          <mxGeometry relative="1" as="geometry" />
        </mxCell>
        <mxCell id="kpc7EbH1DbhFbyY1jSJu-25" value="ถ้า i หาร 2 แล้วได้เศษ 1" style="rhombus;whiteSpace=wrap;html=1;strokeWidth=2;" vertex="1" parent="1">
          <mxGeometry x="350" y="1290" width="140" height="150" as="geometry" />
        </mxCell>
        <mxCell id="kpc7EbH1DbhFbyY1jSJu-27" value="แสดง&amp;nbsp; see see" style="shape=parallelogram;perimeter=parallelogramPerimeter;whiteSpace=wrap;html=1;fixedSize=1;strokeWidth=2;" vertex="1" parent="1">
          <mxGeometry x="360" y="1490" width="120" height="60" as="geometry" />
        </mxCell>
        <mxCell id="kpc7EbH1DbhFbyY1jSJu-31" value="ใช่" style="text;html=1;align=center;verticalAlign=middle;whiteSpace=wrap;rounded=0;" vertex="1" parent="1">
          <mxGeometry x="400" y="1230" width="60" height="30" as="geometry" />
        </mxCell>
        <mxCell id="kpc7EbH1DbhFbyY1jSJu-34" style="edgeStyle=orthogonalEdgeStyle;rounded=0;orthogonalLoop=1;jettySize=auto;html=1;exitX=1;exitY=0.5;exitDx=0;exitDy=0;entryX=0.5;entryY=0;entryDx=0;entryDy=0;" edge="1" parent="1" source="kpc7EbH1DbhFbyY1jSJu-24" target="kpc7EbH1DbhFbyY1jSJu-36">
          <mxGeometry relative="1" as="geometry">
            <mxPoint x="420" y="1960" as="targetPoint" />
            <mxPoint x="610" y="1360" as="sourcePoint" />
            <Array as="points">
              <mxPoint x="560" y="1170" />
              <mxPoint x="560" y="1580" />
              <mxPoint x="420" y="1580" />
            </Array>
          </mxGeometry>
        </mxCell>
        <mxCell id="kpc7EbH1DbhFbyY1jSJu-35" value="ไม่ใช่" style="text;html=1;align=center;verticalAlign=middle;whiteSpace=wrap;rounded=0;" vertex="1" parent="1">
          <mxGeometry x="470" y="1140" width="60" height="30" as="geometry" />
        </mxCell>
        <mxCell id="kpc7EbH1DbhFbyY1jSJu-36" value="แสดง haha" style="shape=parallelogram;perimeter=parallelogramPerimeter;whiteSpace=wrap;html=1;fixedSize=1;strokeWidth=2;" vertex="1" parent="1">
          <mxGeometry x="360" y="1620" width="120" height="60" as="geometry" />
        </mxCell>
        <mxCell id="kpc7EbH1DbhFbyY1jSJu-37" value="end" style="strokeWidth=2;html=1;shape=mxgraph.flowchart.start_1;whiteSpace=wrap;" vertex="1" parent="1">
          <mxGeometry x="370" y="1730" width="100" height="60" as="geometry" />
        </mxCell>
        <mxCell id="kpc7EbH1DbhFbyY1jSJu-38" style="edgeStyle=orthogonalEdgeStyle;rounded=0;orthogonalLoop=1;jettySize=auto;html=1;entryX=0.5;entryY=0;entryDx=0;entryDy=0;entryPerimeter=0;" edge="1" parent="1" source="kpc7EbH1DbhFbyY1jSJu-36" target="kpc7EbH1DbhFbyY1jSJu-37">
          <mxGeometry relative="1" as="geometry" />
        </mxCell>
      </root>
    </mxGraphModel>
  </diagram>
</mxfile>
